<?xml version="1.0" standalone="no"?>
<!DOCTYPE svg PUBLIC "-//W3C//DTD SVG 20010904//EN"
 "http://www.w3.org/TR/2001/REC-SVG-20010904/DTD/svg10.dtd">
<svg version="1.0" xmlns="http://www.w3.org/2000/svg"
 width="2650.000000pt" height="296.000000pt" viewBox="0 0 2650.000000 296.000000"
 preserveAspectRatio="xMidYMid meet">
<metadata>
Created by potrace 1.15, written by Peter Selinger 2001-2017
</metadata>
<g transform="translate(0.000000,296.000000) scale(0.100000,-0.100000)"
fill="#fff" stroke="none">
<path d="M0 1485 l0 -1475 465 0 465 0 0 400 0 399 1073 4 c987 3 1078 5 1147
21 194 46 358 136 496 271 138 136 213 260 271 450 26 87 27 98 27 325 1 248
-3 277 -55 420 -103 280 -341 507 -634 605 -164 56 -143 55 -1762 55 l-1493 0
0 -1475z m2852 758 c82 -39 146 -101 190 -185 31 -60 33 -69 33 -168 0 -97 -2
-110 -32 -172 -40 -85 -106 -151 -191 -191 l-67 -32 -927 -3 -928 -2 0 395 0
395 928 -2 927 -3 67 -32z"/>
<path d="M5160 2950 c-103 -12 -188 -38 -285 -85 -181 -88 -316 -222 -405
-400 -86 -174 -92 -209 -98 -587 -2 -181 0 -328 4 -328 25 0 1262 182 1276
188 14 6 1 51 -103 346 -66 186 -118 341 -116 343 2 2 168 -57 368 -131 246
-90 366 -130 370 -122 9 14 229 763 229 776 0 12 -1141 11 -1240 0z"/>
<path d="M6544 2943 c171 -584 228 -778 229 -780 1 0 166 59 367 132 200 74
366 132 368 130 3 -3 -48 -155 -113 -340 -69 -195 -114 -339 -109 -344 5 -4
284 -47 619 -95 336 -49 622 -91 638 -93 l27 -5 0 300 c0 232 -4 319 -16 383
-64 339 -313 605 -653 697 l-96 26 -633 4 c-609 3 -634 3 -628 -15z"/>
<path d="M9060 1770 c0 -1325 -2 -1275 68 -1420 48 -99 167 -220 267 -272 139
-72 64 -68 1354 -68 l1161 0 0 340 0 340 -917 2 c-897 3 -919 3 -952 23 -19
11 -43 33 -55 48 l-21 28 -3 1085 -2 1084 -450 0 -450 0 0 -1190z"/>
<path d="M13195 2949 c-404 -59 -733 -349 -846 -744 l-23 -80 -3 -1062 -4
-1063 451 0 450 0 0 405 0 405 1075 0 1075 0 0 -405 0 -405 450 0 450 0 0
1024 c0 872 -2 1036 -15 1103 -75 394 -354 691 -753 801 l-97 27 -1075 1
c-591 1 -1102 -2 -1135 -7z m1968 -685 c60 -20 141 -93 175 -158 l27 -51 3
-282 3 -283 -1076 0 -1076 0 3 283 3 282 27 51 c33 63 114 137 171 157 36 13
162 16 868 16 730 1 831 -1 872 -15z"/>
<path d="M16720 1485 l0 -1475 465 0 465 0 0 400 0 400 798 0 797 0 235 -405
234 -405 524 0 c427 0 523 2 520 13 -2 7 -126 226 -277 486 l-275 474 30 21
c228 166 374 392 419 653 20 112 20 364 0 476 -63 360 -328 664 -680 781 -169
57 -141 56 -1762 56 l-1493 0 0 -1475z m2850 759 c83 -39 150 -106 192 -192
31 -62 33 -74 33 -167 0 -93 -2 -105 -32 -165 -41 -83 -110 -152 -193 -193
l-65 -32 -927 -3 -928 -2 0 395 0 395 928 -2 927 -3 65 -31z"/>
<path d="M21180 1480 l0 -1480 450 0 450 0 0 1480 0 1480 -450 0 -450 0 0
-1480z"/>
<path d="M23315 2949 c-131 -19 -254 -67 -370 -144 -373 -248 -508 -739 -314
-1144 118 -249 327 -418 598 -487 l94 -24 1043 0 c704 0 1059 -3 1093 -11 179
-38 236 -261 96 -377 -20 -16 -53 -34 -74 -41 -28 -8 -417 -11 -1435 -11
l-1396 0 0 -350 0 -350 1558 2 1557 3 75 23 c328 101 566 358 636 686 20 95
20 280 -1 381 -70 340 -322 614 -658 717 l-72 22 -1095 6 c-1225 6 -1120 -1
-1193 79 -62 69 -72 147 -29 232 33 66 86 105 161 119 34 6 513 10 1322 10
l1269 0 0 335 0 335 -1402 -1 c-772 -1 -1430 -5 -1463 -10z"/>
<path d="M4372 1084 c6 -372 12 -413 89 -574 114 -239 320 -409 584 -482 78
-22 96 -22 718 -26 350 -2 637 0 637 5 0 26 -227 776 -236 780 -6 2 -172 -55
-369 -127 -197 -72 -359 -129 -362 -127 -2 2 50 157 116 343 66 186 118 340
116 342 -2 2 -277 44 -612 93 -334 49 -625 91 -647 95 l-38 6 4 -328z"/>
<path d="M7910 1314 c-344 -51 -626 -93 -627 -93 -9 -2 8 -54 113 -352 64
-181 114 -332 112 -335 -3 -2 -164 54 -359 126 -194 71 -359 130 -366 130 -13
0 -20 -21 -148 -460 -47 -162 -88 -303 -91 -312 -5 -17 27 -18 578 -18 350 0
617 4 668 11 198 24 369 109 516 254 134 133 207 268 245 450 16 76 19 136 19
393 0 281 -1 302 -17 301 -10 -1 -299 -43 -643 -95z"/>
</g>
</svg>
